<svg height="512" width="512" xmlns="http://www.w3.org/2000/svg"><path d="M509.803 433.472L437.4 361.069a7.502 7.502 0 00-10.608 0l-7.84 7.84-28.822-28.822 7.841-7.841a7.501 7.501 0 000-10.608l-35.177-35.177c7.208-13.09 12.909-26.995 16.903-41.438 8.581-31.03 9.285-64.025 2.038-95.417-.932-4.037-4.961-6.557-8.996-5.622a7.501 7.501 0 00-5.622 8.996c13.953 60.44-3.865 122.672-47.664 166.47-34.785 34.78-80.461 52.169-126.15 52.165-45.678-.004-91.37-17.392-126.141-52.164-69.553-69.562-69.553-182.74 0-252.291 69.552-69.552 182.729-69.552 252.291 0 15.705 15.705 28.17 33.862 37.049 53.967a7.503 7.503 0 0013.725-6.061c-9.631-21.807-23.145-41.494-40.166-58.514-75.411-75.401-198.106-75.401-273.507 0s-75.402 198.096 0 273.508c37.705 37.705 87.219 56.556 136.75 56.551 32.127-.003 64.257-7.948 93.161-23.816l35.175 35.175a7.501 7.501 0 0010.608 0l7.841-7.841 28.822 28.822-7.84 7.84a7.5 7.5 0 000 10.608l21.624 21.624a7.476 7.476 0 005.304 2.197 7.5 7.5 0 005.304-12.805l-16.319-16.32 55.114-55.114 67.099 67.099a7.502 7.502 0 0010.608 0 7.502 7.502 0 00-.002-10.608zm-182.861-51.415l-27.233-27.233a193.487 193.487 0 0055.093-55.137l27.255 27.254zm23.753-2.536l28.826-28.826 28.822 28.822-28.826 28.826zm67.351 93.639a7.502 7.502 0 00-10.608 10.608l26.035 26.035c1.465 1.465 3.384 2.197 5.304 2.197s3.84-.733 5.304-2.197a7.5 7.5 0 000-10.608z"/><path d="M193.303 129.074c13.05 0 23.667-10.617 23.667-23.667 0-13.049-10.617-23.666-23.667-23.666-13.049 0-23.666 10.617-23.666 23.666 0 13.05 10.617 23.667 23.666 23.667zm0-32.33c4.777 0 8.664 3.886 8.664 8.663s-3.886 8.664-8.664 8.664c-4.777 0-8.663-3.886-8.663-8.664 0-4.776 3.886-8.663 8.663-8.663zm-23.666 193.548a7.501 7.501 0 007.501 7.501h32.33a7.501 7.501 0 007.501-7.501v-136.39a7.501 7.501 0 00-7.501-7.501h-32.33a7.501 7.501 0 00-7.501 7.501zm15.003-128.889h17.327v121.388H184.64z"/><path d="M60.049 163.555c-4.082-.68-7.949 2.089-8.625 6.176-7.562 45.717 7.459 92.547 40.183 125.271 27.161 27.166 63.277 42.128 101.694 42.128 38.416 0 74.535-14.961 101.701-42.127s42.127-63.284 42.127-101.701-14.961-74.533-42.127-101.693c-27.166-27.166-63.284-42.127-101.701-42.127S118.768 64.443 91.609 91.607c-12.484 12.474-22.43 26.888-29.561 42.843a7.502 7.502 0 0013.697 6.123c6.381-14.275 15.286-27.178 26.471-38.355 24.328-24.332 56.676-37.732 91.085-37.732s66.76 13.4 91.093 37.733c24.332 24.328 37.732 56.676 37.732 91.085 0 34.41-13.4 66.76-37.733 91.093-24.333 24.332-56.683 37.733-91.092 37.733s-66.757-13.4-91.086-37.733c-29.311-29.311-42.765-71.26-35.991-112.214a7.5 7.5 0 00-6.175-8.628z"/></svg>