<svg xmlns="http://www.w3.org/2000/svg" viewBox="0 0 480 480"><path d="M472 176h-34.096a206.77 206.77 0 00-12.696-30.704l24.096-24.088c1.504-1.504 2.344-3.536 2.344-5.656s-.84-4.16-2.344-5.656l-79.2-79.2c-3-3-8.312-3-11.312 0l-24.088 24.096A206.77 206.77 0 00304 42.096V8c0-4.416-3.584-8-8-8H184c-4.416 0-8 3.584-8 8v34.096a206.77 206.77 0 00-30.704 12.696l-24.088-24.096c-1.504-1.504-3.536-2.344-5.656-2.344s-4.16.84-5.656 2.344l-79.2 79.2c-1.504 1.504-2.344 3.536-2.344 5.656s.84 4.16 2.344 5.656l24.096 24.088A206.77 206.77 0 0042.096 176H8c-4.416 0-8 3.584-8 8v112c0 4.416 3.584 8 8 8h34.096a206.77 206.77 0 0012.696 30.704l-24.096 24.088c-1.504 1.504-2.344 3.536-2.344 5.656s.84 4.16 2.344 5.656l79.2 79.2c3 3 8.312 3 11.312 0l24.088-24.096A206.77 206.77 0 00176 437.904V472c0 4.416 3.584 8 8 8h112c4.416 0 8-3.584 8-8v-34.096a206.77 206.77 0 0030.704-12.696l24.088 24.096c1.504 1.504 3.536 2.344 5.656 2.344s4.16-.84 5.656-2.344l79.2-79.2c1.504-1.504 2.344-3.536 2.344-5.656s-.84-4.16-2.344-5.656l-24.096-24.088A206.77 206.77 0 00437.904 304H472c4.416 0 8-3.584 8-8V184c0-4.416-3.584-8-8-8zm-8 112h-32a7.997 7.997 0 00-7.68 5.76c-3.92 13.464-9.288 26.44-15.952 38.568a7.998 7.998 0 001.352 9.504l22.616 22.616-67.888 67.888-22.616-22.616a7.998 7.998 0 00-9.504-1.352c-12.128 6.664-25.104 12.032-38.568 15.952A7.99 7.99 0 00288 432v32h-96v-32a7.997 7.997 0 00-5.76-7.68c-13.464-3.92-26.44-9.288-38.568-15.952a7.995 7.995 0 00-9.504 1.352l-22.616 22.616-67.888-67.888 22.616-22.616a7.988 7.988 0 001.352-9.504C64.968 320.2 59.6 307.224 55.68 293.76A7.99 7.99 0 0048 288H16v-96h32a7.997 7.997 0 007.68-5.76c3.92-13.464 9.288-26.44 15.952-38.568a7.998 7.998 0 00-1.352-9.504l-22.616-22.616 67.888-67.888 22.616 22.616a7.985 7.985 0 009.504 1.352C159.8 64.968 172.776 59.6 186.24 55.68A7.99 7.99 0 00192 48V16h96v32a7.997 7.997 0 005.76 7.68c13.464 3.92 26.44 9.288 38.568 15.952a7.998 7.998 0 009.504-1.352l22.616-22.616 67.888 67.888-22.616 22.616a7.988 7.988 0 00-1.352 9.504c6.664 12.128 12.032 25.104 15.952 38.568A7.99 7.99 0 00432 192h32v96z"/><path d="M240 104c-74.992 0-136 61.008-136 136 0 31.392 10.792 60.256 28.728 83.304.064.088.072.208.136.296.176.232.384.424.568.648 2.968 3.752 6.104 7.368 9.44 10.784.144.144.272.304.408.456a135.6 135.6 0 0010.872 9.896c1.176.96 2.424 1.8 3.632 2.72 2.512 1.912 5.032 3.8 7.68 5.544 1.848 1.216 3.76 2.312 5.656 3.44 2.144 1.264 4.296 2.504 6.512 3.656a144.486 144.486 0 006.344 3.064 131.448 131.448 0 006.736 2.832c2.152.84 4.296 1.656 6.488 2.384 2.48.824 5.016 1.528 7.56 2.208 2.064.552 4.104 1.144 6.2 1.6 3 .656 6.064 1.12 9.128 1.568 1.72.256 3.416.6 5.152.792 4.856.496 9.768.808 14.76.808s9.904-.312 14.76-.84c1.736-.184 3.432-.536 5.152-.792 3.072-.456 6.128-.92 9.128-1.568 2.096-.456 4.136-1.048 6.2-1.6 2.544-.688 5.072-1.384 7.56-2.208 2.192-.728 4.344-1.544 6.488-2.384 2.272-.888 4.52-1.824 6.736-2.832 2.144-.976 4.256-1.976 6.344-3.064 2.216-1.152 4.368-2.392 6.512-3.656 1.904-1.128 3.808-2.224 5.656-3.44 2.64-1.736 5.168-3.624 7.68-5.544 1.2-.92 2.456-1.752 3.632-2.72 3.8-3.104 7.424-6.408 10.872-9.896.144-.144.272-.304.408-.456 3.344-3.416 6.472-7.032 9.44-10.784.176-.224.392-.416.568-.648.064-.088.072-.2.136-.296C365.208 300.256 376 271.392 376 240c0-74.992-61.008-136-136-136zm83.456 222.048c-.744.728-1.544 1.392-2.312 2.096-2.2 2.032-4.448 4-6.776 5.848-1.312 1.04-2.664 2.016-4.008 3a117.16 117.16 0 01-5.768 3.976 117.144 117.144 0 01-10.504 6.008c-1.832.928-3.68 1.848-5.56 2.688-1.888.84-3.816 1.584-5.744 2.32-1.896.728-3.792 1.472-5.736 2.104-2.12.688-4.28 1.24-6.44 1.816-1.824.48-3.632 1.016-5.488 1.416-2.584.552-5.216.92-7.84 1.304-1.512.216-2.992.528-4.52.688-4.208.432-8.464.688-12.76.688-4.296 0-8.552-.256-12.76-.696-1.528-.16-3.008-.472-4.52-.688-2.632-.376-5.256-.752-7.84-1.304-1.856-.4-3.664-.928-5.488-1.416-2.16-.568-4.32-1.128-6.44-1.816-1.944-.632-3.832-1.376-5.736-2.104-1.928-.736-3.856-1.48-5.744-2.32-1.888-.84-3.728-1.752-5.56-2.688a114.036 114.036 0 01-5.504-2.968 117.144 117.144 0 01-5-3.04 117.16 117.16 0 01-5.768-3.976c-1.352-.984-2.704-1.96-4.008-3a123.176 123.176 0 01-6.776-5.848c-.768-.704-1.56-1.376-2.312-2.096-2.984-2.912-5.864-5.968-8.576-9.216 9.56-32.328 36.016-57.736 68.736-65.912.184.08.376.136.56.216a54.72 54.72 0 004.504 1.76c.224.072.44.168.664.24C227.968 254.968 233.856 256 240 256c6.136 0 12.032-1.032 17.568-2.864.224-.072.448-.168.672-.248a54.548 54.548 0 004.496-1.76c.184-.08.376-.136.56-.216 32.72 8.176 59.176 33.592 68.736 65.92-2.712 3.248-5.584 6.304-8.576 9.216zM200 200c0-22.056 17.944-40 40-40s40 17.944 40 40c0 16.176-9.696 30.072-23.552 36.36-.496.224-.992.472-1.496.672a40.064 40.064 0 01-6.24 1.944c-.576.128-1.152.216-1.728.312-2.104.376-4.256.624-6.464.656-.344.008-.696.008-1.04 0-2.208-.032-4.352-.28-6.464-.656-.576-.104-1.16-.184-1.728-.312a39.226 39.226 0 01-6.24-1.944c-.504-.208-1-.448-1.496-.672C209.696 230.072 200 216.176 200 200zm143.248 100.84c-11.848-28.136-34.984-50.552-63.488-61.464C289.792 229.256 296 215.344 296 200c0-30.88-25.12-56-56-56s-56 25.12-56 56c0 15.344 6.208 29.256 16.24 39.376-28.504 10.912-51.64 33.32-63.488 61.464C126.176 282.976 120 262.216 120 240c0-66.168 53.832-120 120-120s120 53.832 120 120c0 22.216-6.176 42.976-16.752 60.84z"/><path d="M232 272h16v16h-16zm0 32h16v16h-16z"/></svg>