<svg height="512" width="512" xmlns="http://www.w3.org/2000/svg"><path d="M414.301 391.224a7.493 7.493 0 00-7.493 7.493v23.007H97.765V283.311c14.473.012 35.486.023 66.053.033.658 0 1.302.266 1.766.732l32.042 32.041c6.199 6.616 18.131 1.635 17.829-7.383v-25.39h.109c15.149 0 27.475-12.325 27.475-27.475V68.373c0-15.15-12.326-27.475-27.475-27.475h-117.8V27.475c0-6.886 5.602-12.489 12.489-12.489h195.324a7.493 7.493 0 100-14.986H110.254c-15.15 0-27.475 12.325-27.475 27.475v13.423H68.033c-15.149 0-27.475 12.325-27.475 27.475v31.7a7.493 7.493 0 1014.986 0v-31.7c0-6.886 5.602-12.489 12.489-12.489h147.532c6.886 0 12.489 5.602 12.489 12.489v187.496c0 6.886-5.602 12.489-12.489 12.489h-3.606c-6.335 0-11.49 5.154-11.49 11.49v17.919l-24.287-24.287a17.367 17.367 0 00-12.362-5.122c-25.756-.008-92.306-.04-97.169-.085-6.349-.691-11.106-5.982-11.106-12.403V135.654a7.493 7.493 0 10-14.986 0v120.215c0 14.309 10.741 26.068 24.985 27.353v-.003c.534.03 2.735.054 17.235.075v201.231c0 15.15 12.326 27.475 27.475 27.475H394.32c15.149 0 27.475-12.325 27.475-27.475v-85.808a7.494 7.494 0 00-7.494-7.493zm-7.493 93.301c0 6.886-5.602 12.489-12.489 12.489H110.254c-6.886 0-12.489-5.602-12.489-12.489v-47.814h309.043z"/><path d="M228.12 476.354h48.332a7.493 7.493 0 100-14.986H228.12a7.493 7.493 0 100 14.986zm215.847-348.193h-22.172V27.475C421.794 12.325 409.469 0 394.319 0h-49.856a7.493 7.493 0 100 14.986h49.856c6.886 0 12.489 5.602 12.489 12.489v100.686H296.434c-15.149 0-27.475 12.325-27.475 27.475v187.496c0 15.15 12.326 27.475 27.475 27.475h.11v26.046c-.3 9.02 11.628 13.996 17.828 7.384l32.699-32.699a2.481 2.481 0 011.764-.731h95.131c15.149 0 27.475-12.325 27.475-27.475V155.636c.001-15.15-12.325-27.475-27.474-27.475zm12.488 214.971c0 6.886-5.602 12.489-12.489 12.489h-95.132a17.374 17.374 0 00-12.361 5.121l-24.943 24.944V367.11c0-6.334-5.154-11.488-11.49-11.49h-3.607c-6.886 0-12.489-5.602-12.489-12.489V155.636c0-6.886 5.602-12.489 12.489-12.489h147.533c6.886 0 12.489 5.602 12.489 12.489zM160.45 194.074h-37.127c-.987 0-1.681.98-1.355 1.912 2.88 8.236 10.7 14.15 19.919 14.15s17.039-5.914 19.919-14.15a1.44 1.44 0 00-1.356-1.912zm5.27-38.191a8.245 8.245 0 100 16.49 8.245 8.245 0 000-16.49zm-39.422 8.245a8.245 8.245 0 10-16.49 0 8.245 8.245 0 0016.49 0z"/><path d="M185.642 78.443H98.761c-10.312 0-18.701 8.389-18.701 18.701v50.165c-8.23.922-14.65 7.924-14.65 16.397v5.706c0 11.256 7.117 21.17 17.421 24.965a63.199 63.199 0 0016.8 27.319l12.704 12.151c8.375 8.011 19.12 12.016 29.868 12.015 10.745 0 21.494-4.006 29.867-12.015l12.704-12.151a63.196 63.196 0 0016.799-27.318c10.305-3.795 17.422-13.709 17.422-24.966v-5.706c0-8.473-6.42-15.475-14.65-16.397V97.144c-.001-10.312-8.391-18.701-18.703-18.701zM95.06 97.144a3.705 3.705 0 013.701-3.701h86.881a3.706 3.706 0 013.702 3.701V118c-14.589-6.442-30.687-9.811-47.143-9.811-16.455 0-32.552 3.369-47.142 9.811V97.144zm108.934 72.268c0 5.53-3.94 10.317-9.369 11.384a8.512 8.512 0 00-6.626 6.352 48.268 48.268 0 01-13.594 23.708L161.7 223.007a28.157 28.157 0 01-38.997 0l-12.704-12.151a48.269 48.269 0 01-13.596-23.71 8.512 8.512 0 00-6.625-6.35c-5.429-1.066-9.369-5.854-9.369-11.384v-5.706c0-.827.673-1.5 1.5-1.5h5.65a7.5 7.5 0 007.5-7.5v-20.042c14.206-7.51 30.443-11.474 47.142-11.474 16.7 0 32.938 3.965 47.143 11.475v20.042a7.5 7.5 0 007.5 7.5h5.65c.827 0 1.5.673 1.5 1.5zm146.734 111.009c-.986 0-1.68.979-1.354 1.91 2.878 8.229 10.69 14.137 19.901 14.137s17.023-5.909 19.901-14.137a1.437 1.437 0 00-1.354-1.91z"/><circle cx="393.086" cy="250.504" r="8.238"/><circle cx="345.464" cy="250.504" r="8.238"/><path d="M431.417 234.429v-21.921c0-26.989-21.957-48.945-48.945-48.945h-26.394c-26.988 0-48.945 21.957-48.945 48.945v21.921c-8.23.922-14.65 7.924-14.65 16.397v5.706c0 11.354 7.013 21.182 17.425 24.973a63.262 63.262 0 0016.797 27.311l12.703 12.151c8.375 8.011 19.12 12.016 29.868 12.015 10.745 0 21.494-4.006 29.867-12.015l12.703-12.152a63.246 63.246 0 0016.797-27.311c10.414-3.792 17.425-13.619 17.425-24.973v-5.706c-.001-8.471-6.421-15.473-14.651-16.396zm-75.339-55.866h26.394c12.529 0 23.487 6.828 29.368 16.954a27.394 27.394 0 00-7.922-1.168h-69.284c-2.754 0-5.412.412-7.922 1.168 5.88-10.126 16.837-16.954 29.366-16.954zm74.989 77.969c0 5.464-3.726 10.118-9.062 11.318-3.477.783-6.183 3.446-7.064 6.951a48.304 48.304 0 01-13.464 23.175l-12.704 12.152a28.156 28.156 0 01-38.997 0l-12.704-12.151a48.308 48.308 0 01-13.462-23.166c-.877-3.508-3.585-6.175-7.068-6.959-5.25-1.181-9.06-5.941-9.06-11.318v-5.706c0-.827.673-1.5 1.5-1.5h4.65c4.687 0 8.5-3.813 8.5-8.5V221.85c0-6.893 5.607-12.5 12.5-12.5h69.284c6.893 0 12.5 5.607 12.5 12.5v18.978c0 4.687 3.813 8.5 8.5 8.5h4.65c.827 0 1.5.673 1.5 1.5v5.704z"/></svg>