<svg xmlns="http://www.w3.org/2000/svg" xmlns:xlink="http://www.w3.org/1999/xlink"><symbol id="icon-about"><path d="M310.217 93.67c4.497 0 8.832 1.323 12.538 3.826a7.503 7.503 0 008.399-12.433 37.265 37.265 0 00-20.937-6.398c-20.643 0-37.438 16.795-37.438 37.438s16.795 37.439 37.438 37.439c8.251 0 15.658-2.713 21.42-7.844a31.69 31.69 0 003.189-3.289 7.504 7.504 0 00-11.499-9.64c-.519.619-1.081 1.2-1.67 1.724-3.013 2.683-6.862 4.044-11.44 4.044-12.37 0-22.434-10.064-22.434-22.434 0-12.369 10.064-22.433 22.434-22.433zm74.686 59.871h.06c3.765-.025 7.11-2.437 8.339-6.053l19.549-58.846a7.503 7.503 0 00-14.24-4.731l-13.836 41.649-14.528-41.853a7.5 7.5 0 00-9.548-4.627 7.502 7.502 0 00-4.627 9.547l20.488 59.023a8.86 8.86 0 008.343 5.891zm26.016 90.394H270.214a7.502 7.502 0 000 15.004h140.705a7.502 7.502 0 000-15.004zm-140.705 61.024h70.353c4.143 0 7.502-3.358 7.502-7.502s-3.359-7.502-7.502-7.502h-70.353c-4.143 0-7.502 3.358-7.502 7.502s3.359 7.502 7.502 7.502zm140.705 31.015H270.214c-4.143 0-7.502 3.358-7.502 7.502s3.359 7.502 7.502 7.502h140.705a7.502 7.502 0 000-15.004zm7.503 53.522a7.502 7.502 0 00-7.502-7.502H270.214c-4.143 0-7.502 3.358-7.502 7.502s3.359 7.502 7.502 7.502h140.705a7.501 7.501 0 007.503-7.502zm-148.208 39.746c-4.143 0-7.502 3.358-7.502 7.502s3.359 7.502 7.502 7.502h70.353a7.502 7.502 0 000-15.004zm140.705-231.327H270.214a7.502 7.502 0 000 15.004h140.705a7.502 7.502 0 000-15.004z"/><path d="M450.916 105.271a7.502 7.502 0 007.502-7.502V28.711C458.419 12.88 445.539 0 429.707 0H82.293C66.461 0 53.581 12.88 53.581 28.711v454.577c0 15.831 12.88 28.711 28.712 28.711h347.413c15.832 0 28.712-12.88 28.712-28.711V132.843a7.502 7.502 0 10-15.004 0v350.446c0 7.558-6.149 13.707-13.707 13.707H238.494V15.005h191.212c7.558 0 13.707 6.148 13.707 13.707V97.77a7.503 7.503 0 007.503 7.501zM223.489 496.995H82.293c-7.558 0-13.707-6.148-13.707-13.707V28.711c0-7.558 6.149-13.707 13.707-13.707h141.196z"/><path d="M146.133 175.586c32.697 0 59.483-26.623 59.483-59.483 0-32.799-26.684-59.483-59.483-59.483S86.65 83.304 86.65 116.103c0 32.82 26.746 59.483 59.483 59.483zm0-15.005c-9.72 0-18.714-3.143-26.04-8.453 3.123-6.322 8.521-11.396 15.059-14.091 3.336 1.569 7.057 2.451 10.981 2.451s7.645-.882 10.981-2.451c6.538 2.695 11.936 7.769 15.059 14.091-7.325 5.311-16.32 8.453-26.04 8.453zm-10.89-45.988c0-6.006 4.885-10.891 10.891-10.891 6.005 0 10.891 4.885 10.891 10.891 0 6.005-4.885 10.89-10.891 10.89s-10.891-4.885-10.891-10.89zm10.89-42.968c24.526 0 44.478 19.953 44.478 44.478a44.222 44.222 0 01-7.567 24.79 43.695 43.695 0 00-14.256-13.774 25.734 25.734 0 003.241-12.526c0-14.279-11.617-25.896-25.896-25.896s-25.896 11.617-25.896 25.896c0 4.542 1.179 8.811 3.241 12.526a43.676 43.676 0 00-14.256 13.774 44.222 44.222 0 01-7.567-24.79c0-24.525 19.953-44.478 44.478-44.478zm-43.47 213.597h86.94c8.935 0 16.204-7.269 16.204-16.203v-21.435c0-8.935-7.269-16.203-16.204-16.203h-86.94c-8.935 0-16.204 7.269-16.204 16.203v21.435c0 8.934 7.269 16.203 16.204 16.203zm-1.199-37.638a1.2 1.2 0 011.199-1.199h86.94a1.2 1.2 0 011.199 1.199v21.435a1.2 1.2 0 01-1.199 1.199h-86.94a1.2 1.2 0 01-1.199-1.199zm1.199 117.15h7.57c4.143 0 7.502-3.358 7.502-7.502s-3.359-7.502-7.502-7.502h-7.57a1.2 1.2 0 01-1.199-1.199v-21.435a1.2 1.2 0 011.199-1.199h86.94a1.2 1.2 0 011.199 1.199v21.435a1.2 1.2 0 01-1.199 1.199h-44.297a7.502 7.502 0 000 15.004h44.297c8.935 0 16.204-7.269 16.204-16.203v-21.435c0-8.935-7.269-16.203-16.204-16.203h-86.94c-8.935 0-16.204 7.269-16.204 16.203v21.435c0 8.935 7.269 16.203 16.204 16.203zm0 79.513h86.94c8.935 0 16.204-7.269 16.204-16.203v-21.435c0-8.935-7.269-16.203-16.204-16.203h-86.94c-8.935 0-16.204 7.269-16.204 16.203v21.435c0 8.934 7.269 16.203 16.204 16.203zm-1.199-37.639a1.2 1.2 0 011.199-1.199h86.94a1.2 1.2 0 011.199 1.199v21.435a1.2 1.2 0 01-1.199 1.199h-86.94a1.2 1.2 0 01-1.199-1.199z"/></symbol><symbol id="icon-contact"><path d="M414.301 391.224a7.493 7.493 0 00-7.493 7.493v23.007H97.765V283.311c14.473.012 35.486.023 66.053.033.658 0 1.302.266 1.766.732l32.042 32.041c6.199 6.616 18.131 1.635 17.829-7.383v-25.39h.109c15.149 0 27.475-12.325 27.475-27.475V68.373c0-15.15-12.326-27.475-27.475-27.475h-117.8V27.475c0-6.886 5.602-12.489 12.489-12.489h195.324a7.493 7.493 0 100-14.986H110.254c-15.15 0-27.475 12.325-27.475 27.475v13.423H68.033c-15.149 0-27.475 12.325-27.475 27.475v31.7a7.493 7.493 0 1014.986 0v-31.7c0-6.886 5.602-12.489 12.489-12.489h147.532c6.886 0 12.489 5.602 12.489 12.489v187.496c0 6.886-5.602 12.489-12.489 12.489h-3.606c-6.335 0-11.49 5.154-11.49 11.49v17.919l-24.287-24.287a17.367 17.367 0 00-12.362-5.122c-25.756-.008-92.306-.04-97.169-.085-6.349-.691-11.106-5.982-11.106-12.403V135.654a7.493 7.493 0 10-14.986 0v120.215c0 14.309 10.741 26.068 24.985 27.353v-.003c.534.03 2.735.054 17.235.075v201.231c0 15.15 12.326 27.475 27.475 27.475H394.32c15.149 0 27.475-12.325 27.475-27.475v-85.808a7.494 7.494 0 00-7.494-7.493zm-7.493 93.301c0 6.886-5.602 12.489-12.489 12.489H110.254c-6.886 0-12.489-5.602-12.489-12.489v-47.814h309.043z"/><path d="M228.12 476.354h48.332a7.493 7.493 0 100-14.986H228.12a7.493 7.493 0 100 14.986zm215.847-348.193h-22.172V27.475C421.794 12.325 409.469 0 394.319 0h-49.856a7.493 7.493 0 100 14.986h49.856c6.886 0 12.489 5.602 12.489 12.489v100.686H296.434c-15.149 0-27.475 12.325-27.475 27.475v187.496c0 15.15 12.326 27.475 27.475 27.475h.11v26.046c-.3 9.02 11.628 13.996 17.828 7.384l32.699-32.699a2.481 2.481 0 011.764-.731h95.131c15.149 0 27.475-12.325 27.475-27.475V155.636c.001-15.15-12.325-27.475-27.474-27.475zm12.488 214.971c0 6.886-5.602 12.489-12.489 12.489h-95.132a17.374 17.374 0 00-12.361 5.121l-24.943 24.944V367.11c0-6.334-5.154-11.488-11.49-11.49h-3.607c-6.886 0-12.489-5.602-12.489-12.489V155.636c0-6.886 5.602-12.489 12.489-12.489h147.533c6.886 0 12.489 5.602 12.489 12.489zM160.45 194.074h-37.127c-.987 0-1.681.98-1.355 1.912 2.88 8.236 10.7 14.15 19.919 14.15s17.039-5.914 19.919-14.15a1.44 1.44 0 00-1.356-1.912zm5.27-38.191a8.245 8.245 0 100 16.49 8.245 8.245 0 000-16.49zm-39.422 8.245a8.245 8.245 0 10-16.49 0 8.245 8.245 0 0016.49 0z"/><path d="M185.642 78.443H98.761c-10.312 0-18.701 8.389-18.701 18.701v50.165c-8.23.922-14.65 7.924-14.65 16.397v5.706c0 11.256 7.117 21.17 17.421 24.965a63.199 63.199 0 0016.8 27.319l12.704 12.151c8.375 8.011 19.12 12.016 29.868 12.015 10.745 0 21.494-4.006 29.867-12.015l12.704-12.151a63.196 63.196 0 0016.799-27.318c10.305-3.795 17.422-13.709 17.422-24.966v-5.706c0-8.473-6.42-15.475-14.65-16.397V97.144c-.001-10.312-8.391-18.701-18.703-18.701zM95.06 97.144a3.705 3.705 0 013.701-3.701h86.881a3.706 3.706 0 013.702 3.701V118c-14.589-6.442-30.687-9.811-47.143-9.811-16.455 0-32.552 3.369-47.142 9.811V97.144zm108.934 72.268c0 5.53-3.94 10.317-9.369 11.384a8.512 8.512 0 00-6.626 6.352 48.268 48.268 0 01-13.594 23.708L161.7 223.007a28.157 28.157 0 01-38.997 0l-12.704-12.151a48.269 48.269 0 01-13.596-23.71 8.512 8.512 0 00-6.625-6.35c-5.429-1.066-9.369-5.854-9.369-11.384v-5.706c0-.827.673-1.5 1.5-1.5h5.65a7.5 7.5 0 007.5-7.5v-20.042c14.206-7.51 30.443-11.474 47.142-11.474 16.7 0 32.938 3.965 47.143 11.475v20.042a7.5 7.5 0 007.5 7.5h5.65c.827 0 1.5.673 1.5 1.5zm146.734 111.009c-.986 0-1.68.979-1.354 1.91 2.878 8.229 10.69 14.137 19.901 14.137s17.023-5.909 19.901-14.137a1.437 1.437 0 00-1.354-1.91z"/><circle cx="393.086" cy="250.504" r="8.238"/><circle cx="345.464" cy="250.504" r="8.238"/><path d="M431.417 234.429v-21.921c0-26.989-21.957-48.945-48.945-48.945h-26.394c-26.988 0-48.945 21.957-48.945 48.945v21.921c-8.23.922-14.65 7.924-14.65 16.397v5.706c0 11.354 7.013 21.182 17.425 24.973a63.262 63.262 0 0016.797 27.311l12.703 12.151c8.375 8.011 19.12 12.016 29.868 12.015 10.745 0 21.494-4.006 29.867-12.015l12.703-12.152a63.246 63.246 0 0016.797-27.311c10.414-3.792 17.425-13.619 17.425-24.973v-5.706c-.001-8.471-6.421-15.473-14.651-16.396zm-75.339-55.866h26.394c12.529 0 23.487 6.828 29.368 16.954a27.394 27.394 0 00-7.922-1.168h-69.284c-2.754 0-5.412.412-7.922 1.168 5.88-10.126 16.837-16.954 29.366-16.954zm74.989 77.969c0 5.464-3.726 10.118-9.062 11.318-3.477.783-6.183 3.446-7.064 6.951a48.304 48.304 0 01-13.464 23.175l-12.704 12.152a28.156 28.156 0 01-38.997 0l-12.704-12.151a48.308 48.308 0 01-13.462-23.166c-.877-3.508-3.585-6.175-7.068-6.959-5.25-1.181-9.06-5.941-9.06-11.318v-5.706c0-.827.673-1.5 1.5-1.5h4.65c4.687 0 8.5-3.813 8.5-8.5V221.85c0-6.893 5.607-12.5 12.5-12.5h69.284c6.893 0 12.5 5.607 12.5 12.5v18.978c0 4.687 3.813 8.5 8.5 8.5h4.65c.827 0 1.5.673 1.5 1.5v5.704z"/></symbol><symbol id="icon-facebook" viewBox="0 0 512 512"><path d="M320 85.333h64c5.891 0 10.667-4.776 10.667-10.667v-64C394.667 4.776 389.891 0 384 0h-64c-64.772.071-117.263 52.561-117.333 117.333V192H128c-5.891 0-10.667 4.776-10.667 10.667v64c0 5.891 4.776 10.667 10.667 10.667h74.667v224c0 5.891 4.776 10.667 10.667 10.667h64c5.891 0 10.667-4.776 10.667-10.667v-224h74.667a10.666 10.666 0 0010.112-7.296l21.333-64c1.862-5.589-1.16-11.629-6.749-13.491a10.676 10.676 0 00-3.363-.547h-96v-74.667c-.001-17.673 14.326-32 31.999-32z" fill="#2196f3"/></symbol><symbol id="icon-info" viewBox="0 0 524.235 524.235"><path d="M262.118 0C117.588 0 0 117.588 0 262.118s117.588 262.118 262.118 262.118 262.118-117.588 262.118-262.118S406.647 0 262.118 0zm17.05 417.639c-12.453 2.076-37.232 7.261-49.815 8.303-10.651.882-20.702-5.215-26.829-13.967a32.756 32.756 0 01-3.968-29.997l49.547-136.242h-51.515c-.044-28.389 21.25-49.263 48.485-57.274 12.997-3.824 37.212-9.057 49.809-8.255 7.547.48 20.702 5.215 26.829 13.967a32.756 32.756 0 013.968 29.997l-49.547 136.242h51.499c.01 28.356-20.49 52.564-48.463 57.226zm15.714-253.815c-18.096 0-32.765-14.671-32.765-32.765 0-18.096 14.669-32.765 32.765-32.765s32.765 14.669 32.765 32.765c0 18.095-14.668 32.765-32.765 32.765z"/></symbol><symbol id="icon-instagram" viewBox="0 0 368 368"><path d="M312 0H56C25.128 0 0 25.12 0 56v256c0 30.88 25.128 56 56 56h256c30.872 0 56-25.12 56-56V56c0-30.88-25.128-56-56-56zm40 312c0 22.056-17.944 40-40 40H56c-22.056 0-40-17.944-40-40V160h66.8c-.152.648-.208 1.312-.344 1.96a100.346 100.346 0 00-1.416 8.032c-.144 1.04-.296 2.08-.4 3.136-.384 3.592-.64 7.208-.64 10.872 0 57.344 46.656 104 104 104s104-46.656 104-104c0-3.664-.256-7.288-.632-10.888-.104-1.04-.256-2.064-.4-3.096a99.03 99.03 0 00-1.44-8.144c-.136-.624-.184-1.264-.336-1.88H352V312zM96 184c0-10.128 1.696-19.984 5.072-29.344C113.416 119.568 146.744 96 184 96c4.656 0 9.256.368 13.752 1.08 29.256 4.64 54.512 23.84 66.632 51.168a86.085 86.085 0 012.544 6.408c0 .008.008.008.008.016.008.016.008.024.016.04C270.304 164.016 272 173.872 272 184c0 48.52-39.48 88-88 88s-88-39.48-88-88zm256-40h-72.024c-.168-.4-.368-.776-.536-1.176-.48-1.128-1.008-2.224-1.528-3.32a89.896 89.896 0 00-1.888-3.84c-.568-1.088-1.176-2.152-1.776-3.208-.696-1.216-1.4-2.424-2.136-3.608a102.571 102.571 0 00-2.024-3.088 97.985 97.985 0 00-2.368-3.368 110.397 110.397 0 00-4.848-6.088c-.8-.936-1.624-1.856-2.456-2.76a121.26 121.26 0 00-2.808-2.928 100.857 100.857 0 00-2.656-2.576c-.984-.92-2-1.816-3.016-2.696a99.826 99.826 0 00-2.816-2.36 107.434 107.434 0 00-3.224-2.472c-.984-.728-1.96-1.456-2.968-2.144a96.021 96.021 0 00-3.416-2.224c-1.024-.648-2.048-1.304-3.096-1.912a104.838 104.838 0 00-3.6-1.976c-1.064-.568-2.128-1.144-3.216-1.68-1.248-.608-2.512-1.16-3.784-1.72-1.096-.48-2.184-.984-3.296-1.424-1.312-.528-2.656-.984-4-1.464-1.104-.392-2.2-.8-3.32-1.16-1.408-.44-2.832-.808-4.264-1.192-1.096-.296-2.176-.616-3.28-.88-1.52-.352-3.064-.624-4.6-.912-1.04-.192-2.072-.432-3.12-.592-1.728-.272-3.488-.44-5.24-.624-.888-.088-1.76-.232-2.656-.304A111.973 111.973 0 00184 80c-2.696 0-5.368.112-8.024.32-.896.072-1.768.208-2.656.304-1.752.184-3.504.352-5.232.624-1.064.168-2.096.4-3.152.6-1.528.288-3.064.552-4.568.904-1.128.264-2.224.592-3.336.896-1.408.376-2.816.744-4.2 1.176-1.144.36-2.256.784-3.384 1.176-1.312.464-2.632.92-3.928 1.432-1.144.456-2.264.968-3.392 1.464-1.232.544-2.472 1.08-3.68 1.672-1.136.552-2.24 1.152-3.352 1.744a96.256 96.256 0 00-3.448 1.896c-1.104.648-2.184 1.336-3.264 2.016a106.357 106.357 0 00-3.232 2.104 108.9 108.9 0 00-3.16 2.28 103.59 103.59 0 00-3.016 2.304c-1.032.824-2.032 1.68-3.032 2.544-.944.816-1.872 1.64-2.784 2.488-.976.912-1.928 1.84-2.872 2.784a101.809 101.809 0 00-7.632 8.568 119.831 119.831 0 00-2.448 3.184 93.922 93.922 0 00-2.184 3.104 95.713 95.713 0 00-2.184 3.336c-.688 1.104-1.344 2.232-1.992 3.36s-1.288 2.256-1.896 3.416c-.64 1.216-1.232 2.464-1.824 3.712-.528 1.12-1.064 2.24-1.56 3.384-.176.408-.384.792-.552 1.2H16V56c0-22.056 17.944-40 40-40h256c22.056 0 40 17.944 40 40v88z"/><path d="M184 128c-30.872 0-56 25.12-56 56s25.128 56 56 56 56-25.12 56-56-25.128-56-56-56zm0 96c-22.056 0-40-17.944-40-40s17.944-40 40-40 40 17.944 40 40-17.944 40-40 40zM312 48h-24c-4.424 0-8 3.584-8 8v24c0 4.416 3.576 8 8 8h24c4.424 0 8-3.584 8-8V56c0-4.416-3.576-8-8-8zm-8 24h-8v-8h8v8z"/></symbol><symbol id="icon-linkedin" viewBox="0 0 24 24"><path d="M23.994 24v-.001H24v-8.802c0-4.306-.927-7.623-5.961-7.623-2.42 0-4.044 1.328-4.707 2.587h-.07V7.976H8.489v16.023h4.97v-7.934c0-2.089.396-4.109 2.983-4.109 2.549 0 2.587 2.384 2.587 4.243V24zM.396 7.977h4.976V24H.396zM2.882 0C1.291 0 0 1.291 0 2.882s1.291 2.909 2.882 2.909 2.882-1.318 2.882-2.909A2.884 2.884 0 002.882 0z" fill="#0077b5"/></symbol><symbol id="icon-mail" viewBox="0 0 512 512"><path fill="#eceff1" d="M64 64h384v384H64z"/><path fill="#cfd8dc" d="M256 296.384L448 448V148.672z"/><path d="M464 64h-16L256 215.616 64 64H48C21.504 64 0 85.504 0 112v288c0 26.496 21.504 48 48 48h16V148.672l192 147.68L448 148.64V448h16c26.496 0 48-21.504 48-48V112c0-26.496-21.504-48-48-48z" fill="#f44336"/></symbol><symbol id="icon-phone" viewBox="0 0 513.64 513.64"><path d="M499.66 376.96l-71.68-71.68c-25.6-25.6-69.12-15.359-79.36 17.92-7.68 23.041-33.28 35.841-56.32 30.72-51.2-12.8-120.32-79.36-133.12-133.12-7.68-23.041 7.68-48.641 30.72-56.32 33.28-10.24 43.52-53.76 17.92-79.36l-71.68-71.68c-20.48-17.92-51.2-17.92-69.12 0L18.38 62.08c-48.64 51.2 5.12 186.88 125.44 307.2s256 176.641 307.2 125.44l48.64-48.64c17.921-20.48 17.921-51.2 0-69.12z"/></symbol><symbol id="icon-portfolio"><path d="M497 120.5H361.375V90.692c0-33.397-27.171-60.567-60.567-60.567h-89.615c-33.396 0-60.567 27.17-60.567 60.567V120.5H15c-8.284 0-15 6.716-15 15V408c0 40.735 33.141 73.875 73.875 73.875h364.25c40.734 0 73.875-33.14 73.875-73.875V135.5c0-8.284-6.716-15-15-15zM290.035 316.25c0 18.767-15.269 34.035-34.035 34.035s-34.035-15.268-34.035-34.035v-34.035h68.07zm15-64.035h-98.07c-8.284 0-15 6.716-15 15v27.247C104.737 275.53 39.348 218.952 30.935 150.5h450.129c-8.413 68.452-73.801 125.03-161.029 143.963v-27.247c0-8.285-6.716-15.001-15-15.001zM180.625 90.692c0-16.855 13.713-30.567 30.567-30.567h89.615c16.854 0 30.567 13.712 30.567 30.567V120.5h-150.75V90.692zM482 408c0 24.193-19.683 43.875-43.875 43.875H73.875C49.683 451.875 30 432.193 30 408V227.854c12.11 17.317 27.724 33.308 46.587 47.455 32.687 24.515 72.592 41.535 116.022 49.932 4.386 31.065 31.134 55.043 63.391 55.043s59.005-23.978 63.391-55.043c43.43-8.397 83.334-25.417 116.022-49.932 18.863-14.147 34.477-30.139 46.587-47.455z"/></symbol><symbol id="icon-skills" viewBox="0 0 480 480"><path d="M472 176h-34.096a206.77 206.77 0 00-12.696-30.704l24.096-24.088c1.504-1.504 2.344-3.536 2.344-5.656s-.84-4.16-2.344-5.656l-79.2-79.2c-3-3-8.312-3-11.312 0l-24.088 24.096A206.77 206.77 0 00304 42.096V8c0-4.416-3.584-8-8-8H184c-4.416 0-8 3.584-8 8v34.096a206.77 206.77 0 00-30.704 12.696l-24.088-24.096c-1.504-1.504-3.536-2.344-5.656-2.344s-4.16.84-5.656 2.344l-79.2 79.2c-1.504 1.504-2.344 3.536-2.344 5.656s.84 4.16 2.344 5.656l24.096 24.088A206.77 206.77 0 0042.096 176H8c-4.416 0-8 3.584-8 8v112c0 4.416 3.584 8 8 8h34.096a206.77 206.77 0 0012.696 30.704l-24.096 24.088c-1.504 1.504-2.344 3.536-2.344 5.656s.84 4.16 2.344 5.656l79.2 79.2c3 3 8.312 3 11.312 0l24.088-24.096A206.77 206.77 0 00176 437.904V472c0 4.416 3.584 8 8 8h112c4.416 0 8-3.584 8-8v-34.096a206.77 206.77 0 0030.704-12.696l24.088 24.096c1.504 1.504 3.536 2.344 5.656 2.344s4.16-.84 5.656-2.344l79.2-79.2c1.504-1.504 2.344-3.536 2.344-5.656s-.84-4.16-2.344-5.656l-24.096-24.088A206.77 206.77 0 00437.904 304H472c4.416 0 8-3.584 8-8V184c0-4.416-3.584-8-8-8zm-8 112h-32a7.997 7.997 0 00-7.68 5.76c-3.92 13.464-9.288 26.44-15.952 38.568a7.998 7.998 0 001.352 9.504l22.616 22.616-67.888 67.888-22.616-22.616a7.998 7.998 0 00-9.504-1.352c-12.128 6.664-25.104 12.032-38.568 15.952A7.99 7.99 0 00288 432v32h-96v-32a7.997 7.997 0 00-5.76-7.68c-13.464-3.92-26.44-9.288-38.568-15.952a7.995 7.995 0 00-9.504 1.352l-22.616 22.616-67.888-67.888 22.616-22.616a7.988 7.988 0 001.352-9.504C64.968 320.2 59.6 307.224 55.68 293.76A7.99 7.99 0 0048 288H16v-96h32a7.997 7.997 0 007.68-5.76c3.92-13.464 9.288-26.44 15.952-38.568a7.998 7.998 0 00-1.352-9.504l-22.616-22.616 67.888-67.888 22.616 22.616a7.985 7.985 0 009.504 1.352C159.8 64.968 172.776 59.6 186.24 55.68A7.99 7.99 0 00192 48V16h96v32a7.997 7.997 0 005.76 7.68c13.464 3.92 26.44 9.288 38.568 15.952a7.998 7.998 0 009.504-1.352l22.616-22.616 67.888 67.888-22.616 22.616a7.988 7.988 0 00-1.352 9.504c6.664 12.128 12.032 25.104 15.952 38.568A7.99 7.99 0 00432 192h32v96z"/><path d="M240 104c-74.992 0-136 61.008-136 136 0 31.392 10.792 60.256 28.728 83.304.064.088.072.208.136.296.176.232.384.424.568.648 2.968 3.752 6.104 7.368 9.44 10.784.144.144.272.304.408.456a135.6 135.6 0 0010.872 9.896c1.176.96 2.424 1.8 3.632 2.72 2.512 1.912 5.032 3.8 7.68 5.544 1.848 1.216 3.76 2.312 5.656 3.44 2.144 1.264 4.296 2.504 6.512 3.656a144.486 144.486 0 006.344 3.064 131.448 131.448 0 006.736 2.832c2.152.84 4.296 1.656 6.488 2.384 2.48.824 5.016 1.528 7.56 2.208 2.064.552 4.104 1.144 6.2 1.6 3 .656 6.064 1.12 9.128 1.568 1.72.256 3.416.6 5.152.792 4.856.496 9.768.808 14.76.808s9.904-.312 14.76-.84c1.736-.184 3.432-.536 5.152-.792 3.072-.456 6.128-.92 9.128-1.568 2.096-.456 4.136-1.048 6.2-1.6 2.544-.688 5.072-1.384 7.56-2.208 2.192-.728 4.344-1.544 6.488-2.384 2.272-.888 4.52-1.824 6.736-2.832 2.144-.976 4.256-1.976 6.344-3.064 2.216-1.152 4.368-2.392 6.512-3.656 1.904-1.128 3.808-2.224 5.656-3.44 2.64-1.736 5.168-3.624 7.68-5.544 1.2-.92 2.456-1.752 3.632-2.72 3.8-3.104 7.424-6.408 10.872-9.896.144-.144.272-.304.408-.456 3.344-3.416 6.472-7.032 9.44-10.784.176-.224.392-.416.568-.648.064-.088.072-.2.136-.296C365.208 300.256 376 271.392 376 240c0-74.992-61.008-136-136-136zm83.456 222.048c-.744.728-1.544 1.392-2.312 2.096-2.2 2.032-4.448 4-6.776 5.848-1.312 1.04-2.664 2.016-4.008 3a117.16 117.16 0 01-5.768 3.976 117.144 117.144 0 01-10.504 6.008c-1.832.928-3.68 1.848-5.56 2.688-1.888.84-3.816 1.584-5.744 2.32-1.896.728-3.792 1.472-5.736 2.104-2.12.688-4.28 1.24-6.44 1.816-1.824.48-3.632 1.016-5.488 1.416-2.584.552-5.216.92-7.84 1.304-1.512.216-2.992.528-4.52.688-4.208.432-8.464.688-12.76.688-4.296 0-8.552-.256-12.76-.696-1.528-.16-3.008-.472-4.52-.688-2.632-.376-5.256-.752-7.84-1.304-1.856-.4-3.664-.928-5.488-1.416-2.16-.568-4.32-1.128-6.44-1.816-1.944-.632-3.832-1.376-5.736-2.104-1.928-.736-3.856-1.48-5.744-2.32-1.888-.84-3.728-1.752-5.56-2.688a114.036 114.036 0 01-5.504-2.968 117.144 117.144 0 01-5-3.04 117.16 117.16 0 01-5.768-3.976c-1.352-.984-2.704-1.96-4.008-3a123.176 123.176 0 01-6.776-5.848c-.768-.704-1.56-1.376-2.312-2.096-2.984-2.912-5.864-5.968-8.576-9.216 9.56-32.328 36.016-57.736 68.736-65.912.184.08.376.136.56.216a54.72 54.72 0 004.504 1.76c.224.072.44.168.664.24C227.968 254.968 233.856 256 240 256c6.136 0 12.032-1.032 17.568-2.864.224-.072.448-.168.672-.248a54.548 54.548 0 004.496-1.76c.184-.08.376-.136.56-.216 32.72 8.176 59.176 33.592 68.736 65.92-2.712 3.248-5.584 6.304-8.576 9.216zM200 200c0-22.056 17.944-40 40-40s40 17.944 40 40c0 16.176-9.696 30.072-23.552 36.36-.496.224-.992.472-1.496.672a40.064 40.064 0 01-6.24 1.944c-.576.128-1.152.216-1.728.312-2.104.376-4.256.624-6.464.656-.344.008-.696.008-1.04 0-2.208-.032-4.352-.28-6.464-.656-.576-.104-1.16-.184-1.728-.312a39.226 39.226 0 01-6.24-1.944c-.504-.208-1-.448-1.496-.672C209.696 230.072 200 216.176 200 200zm143.248 100.84c-11.848-28.136-34.984-50.552-63.488-61.464C289.792 229.256 296 215.344 296 200c0-30.88-25.12-56-56-56s-56 25.12-56 56c0 15.344 6.208 29.256 16.24 39.376-28.504 10.912-51.64 33.32-63.488 61.464C126.176 282.976 120 262.216 120 240c0-66.168 53.832-120 120-120s120 53.832 120 120c0 22.216-6.176 42.976-16.752 60.84z"/><path d="M232 272h16v16h-16zm0 32h16v16h-16z"/></symbol><symbol id="icon-skype" viewBox="0 0 24 24"><path d="M23.309 14.547C25.047 6.737 18.205-.358 10.17 1.004 5.808-1.703 0 1.356 0 6.546c0 1.207.333 2.337.912 3.311-1.615 7.828 5.283 14.821 13.311 13.366a6.695 6.695 0 003.139.777c4.949 0 8.118-5.133 5.947-9.453zm-11.213 5.332c-2.342 0-4.63-.565-5.984-2.499-2.018-2.854.643-4.282 1.949-3.194 1.09.919.748 3.142 3.949 3.142 1.411 0 3.153-.602 3.153-2.001 0-2.815-6.245-1.483-8.728-4.552-.912-1.124-1.084-3.107.036-4.545 1.952-2.512 7.68-2.665 10.143-.768 2.274 1.76 1.66 4.096-.175 4.096-2.207 0-1.047-2.888-4.61-2.888-2.583 0-3.599 1.837-1.78 2.731 2.421 1.202 8.75.827 8.75 5.603-.008 3.357-3.247 4.875-6.703 4.875z" fill="#03a9f4"/></symbol><symbol id="icon-twitter" viewBox="0 0 512 512"><path d="M512 97.248c-19.04 8.352-39.328 13.888-60.48 16.576 21.76-12.992 38.368-33.408 46.176-58.016-20.288 12.096-42.688 20.64-66.56 25.408C411.872 60.704 384.416 48 354.464 48c-58.112 0-104.896 47.168-104.896 104.992 0 8.32.704 16.32 2.432 23.936-87.264-4.256-164.48-46.08-216.352-109.792-9.056 15.712-14.368 33.696-14.368 53.056 0 36.352 18.72 68.576 46.624 87.232-16.864-.32-33.408-5.216-47.424-12.928v1.152c0 51.008 36.384 93.376 84.096 103.136-8.544 2.336-17.856 3.456-27.52 3.456-6.72 0-13.504-.384-19.872-1.792 13.6 41.568 52.192 72.128 98.08 73.12-35.712 27.936-81.056 44.768-130.144 44.768-8.608 0-16.864-.384-25.12-1.44C46.496 446.88 101.6 464 161.024 464c193.152 0 298.752-160 298.752-298.688 0-4.64-.16-9.12-.384-13.568 20.832-14.784 38.336-33.248 52.608-54.496z" fill="#03a9f4"/></symbol><symbol id="icon-viber" viewBox="0 0 24 24"><path d="M23.155 13.893c.716-6.027-.344-9.832-2.256-11.553l.001-.001C17.814-.6 7.392-1.035 3.7 2.471 2.042 4.186 1.458 6.703 1.394 9.819c-.064 3.117-.14 8.956 5.301 10.54H6.7l-.005 2.419s-.037.98.589 1.177c.716.232 1.04-.223 3.267-2.883 3.724.323 6.584-.417 6.909-.525.752-.252 5.007-.815 5.695-6.654zM10.918 19.37s-2.357 2.939-3.09 3.702c-.24.248-.503.225-.499-.267 0-.323.018-4.016.018-4.016-4.613-1.322-4.341-6.294-4.291-8.895.05-2.602.526-4.733 1.93-6.168C8.225.689 17.362 1.368 19.69 3.556c2.846 2.523 1.833 9.651 1.839 9.894-.585 4.874-4.033 5.183-4.667 5.394-.271.09-2.786.737-5.944.526z"/><path d="M12.222 4.297c-.385 0-.385.6 0 .605 2.987.023 5.447 2.105 5.474 5.924 0 .403.59.398.585-.005h-.001c-.032-4.115-2.718-6.501-6.058-6.524z"/><path d="M16.151 10.193c-.009.398.58.417.585.014.049-2.269-1.35-4.138-3.979-4.335-.385-.028-.425.577-.041.605 2.28.173 3.481 1.729 3.435 3.716zm-.63 2.581c-.494-.286-.997-.108-1.205.173l-.435.563c-.221.286-.634.248-.634.248-3.014-.797-3.82-3.951-3.82-3.951s-.037-.427.239-.656l.544-.45c.272-.216.444-.736.167-1.247-.74-1.337-1.237-1.798-1.49-2.152-.266-.333-.666-.408-1.082-.183h-.009c-.865.506-1.812 1.453-1.509 2.428.517 1.028 1.467 4.305 4.495 6.781 1.423 1.171 3.675 2.371 4.631 2.648l.009.014c.942.314 1.858-.67 2.347-1.561v-.007c.217-.431.145-.839-.172-1.106-.562-.548-1.41-1.153-2.076-1.542z"/><path d="M13.169 8.104c.961.056 1.427.558 1.477 1.589.018.403.603.375.585-.028-.064-1.346-.766-2.096-2.03-2.166-.385-.023-.421.582-.032.605z"/></symbol><symbol id="icon-vk" viewBox="0 0 24 24"><path d="M19.915 13.028c-.388-.49-.277-.708 0-1.146.005-.005 3.208-4.431 3.538-5.932l.002-.001c.164-.547 0-.949-.793-.949h-2.624c-.668 0-.976.345-1.141.731 0 0-1.336 3.198-3.226 5.271-.61.599-.892.791-1.225.791-.164 0-.419-.192-.419-.739V5.949c0-.656-.187-.949-.74-.949H9.161c-.419 0-.668.306-.668.591 0 .622.945.765 1.043 2.515v3.797c0 .832-.151.985-.486.985-.892 0-3.057-3.211-4.34-6.886-.259-.713-.512-1.001-1.185-1.001H.9c-.749 0-.9.345-.9.731 0 .682.892 4.073 4.148 8.553C6.318 17.343 9.374 19 12.154 19c1.671 0 1.875-.368 1.875-1.001 0-2.922-.151-3.198.686-3.198.388 0 1.056.192 2.616 1.667C19.114 18.217 19.407 19 20.405 19h2.624c.748 0 1.127-.368.909-1.094-.499-1.527-3.871-4.668-4.023-4.878z" fill="#4b729f"/></symbol><symbol id="icon-whatsapp" viewBox="0 0 512 512"><path d="M256.064 0h-.128C114.784 0 0 114.816 0 256c0 56 18.048 107.904 48.736 150.048l-31.904 95.104 98.4-31.456C155.712 496.512 204 512 256.064 512 397.216 512 512 397.152 512 256S397.216 0 256.064 0zm148.96 361.504c-6.176 17.44-30.688 31.904-50.24 36.128-13.376 2.848-30.848 5.12-89.664-19.264-75.232-31.168-123.68-107.616-127.456-112.576-3.616-4.96-30.4-40.48-30.4-77.216s18.656-54.624 26.176-62.304c6.176-6.304 16.384-9.184 26.176-9.184 3.168 0 6.016.16 8.576.288 7.52.32 11.296.768 16.256 12.64 6.176 14.88 21.216 51.616 23.008 55.392 1.824 3.776 3.648 8.896 1.088 13.856-2.4 5.12-4.512 7.392-8.288 11.744-3.776 4.352-7.36 7.68-11.136 12.352-3.456 4.064-7.36 8.416-3.008 15.936 4.352 7.36 19.392 31.904 41.536 51.616 28.576 25.44 51.744 33.568 60.032 37.024 6.176 2.56 13.536 1.952 18.048-2.848 5.728-6.176 12.8-16.416 20-26.496 5.12-7.232 11.584-8.128 18.368-5.568 6.912 2.4 43.488 20.48 51.008 24.224 7.52 3.776 12.48 5.568 14.304 8.736 1.792 3.168 1.792 18.048-4.384 35.52z"/></symbol></svg>