<svg id="Capa_1" enable-background="new 0 0 512 512" height="512" viewBox="0 0 512 512" width="512" xmlns="http://www.w3.org/2000/svg"><g><g><path d="m509.803 433.472-72.403-72.403c-2.929-2.929-7.679-2.929-10.608 0l-7.84 7.84-28.822-28.822 7.841-7.841c1.407-1.407 2.197-3.315 2.197-5.304s-.79-3.898-2.197-5.304l-35.177-35.177c7.208-13.09 12.909-26.995 16.903-41.438 8.581-31.03 9.285-64.025 2.038-95.417-.932-4.037-4.961-6.557-8.996-5.622-4.037.932-6.554 4.96-5.622 8.996 13.953 60.44-3.865 122.672-47.664 166.47-34.785 34.78-80.461 52.169-126.15 52.165-45.678-.004-91.37-17.392-126.141-52.164-69.553-69.562-69.553-182.74 0-252.291 69.552-69.552 182.729-69.552 252.291 0 15.705 15.705 28.17 33.862 37.049 53.967 1.675 3.791 6.106 5.505 9.893 3.832 3.79-1.674 5.505-6.103 3.832-9.893-9.631-21.807-23.145-41.494-40.166-58.514-75.411-75.401-198.106-75.401-273.507 0s-75.402 198.096 0 273.508c37.705 37.705 87.219 56.556 136.75 56.551 32.127-.003 64.257-7.948 93.161-23.816l35.175 35.175c1.407 1.407 3.315 2.197 5.304 2.197 1.99 0 3.898-.79 5.304-2.197l7.841-7.841 28.822 28.822-7.84 7.84c-2.93 2.929-2.93 7.679 0 10.608l21.624 21.624c1.465 1.465 3.384 2.197 5.304 2.197 1.919 0 3.84-.733 5.304-2.197 2.93-2.929 2.93-7.679 0-10.608l-16.319-16.32 55.114-55.114 67.099 67.099c2.929 2.929 7.679 2.929 10.608 0 2.928-2.929 2.928-7.679-.002-10.608zm-182.861-51.415-27.233-27.233c10.734-7.074 20.913-15.329 30.35-24.765 9.29-9.29 17.564-19.485 24.743-30.372l27.255 27.254zm23.753-2.536 28.826-28.826 28.822 28.822-28.826 28.826z"/><path d="m418.046 473.16c-2.929-2.929-7.679-2.929-10.608 0-2.93 2.929-2.93 7.679 0 10.608l26.035 26.035c1.465 1.465 3.384 2.197 5.304 2.197s3.84-.733 5.304-2.197c2.93-2.929 2.93-7.679 0-10.608z"/><path d="m193.303 129.074c13.05 0 23.667-10.617 23.667-23.667 0-13.049-10.617-23.666-23.667-23.666-13.049 0-23.666 10.617-23.666 23.666 0 13.05 10.617 23.667 23.666 23.667zm0-32.33c4.777 0 8.664 3.886 8.664 8.663s-3.886 8.664-8.664 8.664c-4.777 0-8.663-3.886-8.663-8.664 0-4.776 3.886-8.663 8.663-8.663z"/><path d="m169.637 290.292c0 4.143 3.359 7.501 7.501 7.501h32.33c4.143 0 7.501-3.359 7.501-7.501v-136.39c0-4.143-3.359-7.501-7.501-7.501h-32.33c-4.143 0-7.501 3.359-7.501 7.501zm15.003-128.889h17.327v121.388h-17.327z"/><path d="m60.049 163.555c-4.082-.68-7.949 2.089-8.625 6.176-7.562 45.717 7.459 92.547 40.183 125.271 27.161 27.166 63.277 42.128 101.694 42.128 38.416 0 74.535-14.961 101.701-42.127s42.127-63.284 42.127-101.701-14.961-74.533-42.127-101.693c-27.166-27.166-63.284-42.127-101.701-42.127s-74.533 14.961-101.692 42.125c-12.484 12.474-22.43 26.888-29.561 42.843-1.691 3.782.005 8.219 3.787 9.91 3.78 1.689 8.218-.006 9.91-3.787 6.381-14.275 15.286-27.178 26.471-38.355 24.328-24.332 56.676-37.732 91.085-37.732s66.76 13.4 91.093 37.733c24.332 24.328 37.732 56.676 37.732 91.085 0 34.41-13.4 66.76-37.733 91.093-24.333 24.332-56.683 37.733-91.092 37.733s-66.757-13.4-91.086-37.733c-29.311-29.311-42.765-71.26-35.991-112.214.678-4.091-2.088-7.952-6.175-8.628z"/></g></g></svg>