<?xml version="1.0" encoding="iso-8859-1"?>
<!-- Generator: Adobe Illustrator 19.0.0, SVG Export Plug-In . SVG Version: 6.00 Build 0)  -->
<svg version="1.1" id="Capa_1" xmlns="http://www.w3.org/2000/svg" xmlns:xlink="http://www.w3.org/1999/xlink" x="0px" y="0px"
	 viewBox="0 0 480 480" style="enable-background:new 0 0 480 480;" xml:space="preserve">
<g>
	<g>
		<path d="M472,176h-34.096c-3.416-10.6-7.672-20.88-12.696-30.704l24.096-24.088c1.504-1.504,2.344-3.536,2.344-5.656
			s-0.84-4.16-2.344-5.656l-79.2-79.2c-3-3-8.312-3-11.312,0l-24.088,24.096C324.88,49.768,314.6,45.512,304,42.096V8
			c0-4.416-3.584-8-8-8H184c-4.416,0-8,3.584-8,8v34.096c-10.6,3.416-20.88,7.672-30.704,12.696l-24.088-24.096
			c-1.504-1.504-3.536-2.344-5.656-2.344s-4.16,0.84-5.656,2.344l-79.2,79.2c-1.504,1.504-2.344,3.536-2.344,5.656
			s0.84,4.16,2.344,5.656l24.096,24.088C49.768,155.12,45.512,165.4,42.096,176H8c-4.416,0-8,3.584-8,8v112c0,4.416,3.584,8,8,8
			h34.096c3.416,10.6,7.672,20.88,12.696,30.704l-24.096,24.088c-1.504,1.504-2.344,3.536-2.344,5.656s0.84,4.16,2.344,5.656
			l79.2,79.2c3,3,8.312,3,11.312,0l24.088-24.096c9.824,5.024,20.104,9.28,30.704,12.696V472c0,4.416,3.584,8,8,8h112
			c4.416,0,8-3.584,8-8v-34.096c10.6-3.416,20.88-7.672,30.704-12.696l24.088,24.096c1.504,1.504,3.536,2.344,5.656,2.344
			s4.16-0.84,5.656-2.344l79.2-79.2c1.504-1.504,2.344-3.536,2.344-5.656s-0.84-4.16-2.344-5.656l-24.096-24.088
			c5.024-9.824,9.28-20.104,12.696-30.704H472c4.416,0,8-3.584,8-8V184C480,179.584,476.416,176,472,176z M464,288h-32
			c-3.552,0-6.688,2.344-7.68,5.76c-3.92,13.464-9.288,26.44-15.952,38.568c-1.712,3.12-1.16,6.992,1.352,9.504l22.616,22.616
			l-67.888,67.888l-22.616-22.616c-2.512-2.512-6.384-3.064-9.504-1.352c-12.128,6.664-25.104,12.032-38.568,15.952
			c-3.416,0.992-5.76,4.12-5.76,7.68v32h-96v-32c0-3.552-2.344-6.688-5.76-7.68c-13.464-3.92-26.44-9.288-38.568-15.952
			c-3.128-1.712-7-1.16-9.504,1.352l-22.616,22.616l-67.888-67.888l22.616-22.616c2.512-2.512,3.072-6.392,1.352-9.504
			C64.968,320.2,59.6,307.224,55.68,293.76C54.688,290.344,51.56,288,48,288H16v-96h32c3.552,0,6.688-2.344,7.68-5.76
			c3.92-13.464,9.288-26.44,15.952-38.568c1.712-3.12,1.16-6.992-1.352-9.504l-22.616-22.616l67.888-67.888l22.616,22.616
			c2.512,2.512,6.376,3.072,9.504,1.352C159.8,64.968,172.776,59.6,186.24,55.68c3.416-0.992,5.76-4.12,5.76-7.68V16h96v32
			c0,3.552,2.344,6.688,5.76,7.68c13.464,3.92,26.44,9.288,38.568,15.952c3.12,1.712,6.992,1.16,9.504-1.352l22.616-22.616
			l67.888,67.888l-22.616,22.616c-2.512,2.512-3.072,6.392-1.352,9.504c6.664,12.128,12.032,25.104,15.952,38.568
			c0.992,3.416,4.12,5.76,7.68,5.76h32V288z"/>
	</g>
</g>
<g>
	<g>
		<path d="M240,104c-74.992,0-136,61.008-136,136c0,31.392,10.792,60.256,28.728,83.304c0.064,0.088,0.072,0.208,0.136,0.296
			c0.176,0.232,0.384,0.424,0.568,0.648c2.968,3.752,6.104,7.368,9.44,10.784c0.144,0.144,0.272,0.304,0.408,0.456
			c3.44,3.488,7.064,6.792,10.872,9.896c1.176,0.96,2.424,1.8,3.632,2.72c2.512,1.912,5.032,3.8,7.68,5.544
			c1.848,1.216,3.76,2.312,5.656,3.44c2.144,1.264,4.296,2.504,6.512,3.656c2.088,1.08,4.208,2.088,6.344,3.064
			c2.216,1.008,4.456,1.944,6.736,2.832c2.152,0.84,4.296,1.656,6.488,2.384c2.48,0.824,5.016,1.528,7.56,2.208
			c2.064,0.552,4.104,1.144,6.2,1.6c3,0.656,6.064,1.12,9.128,1.568c1.72,0.256,3.416,0.6,5.152,0.792
			c4.856,0.496,9.768,0.808,14.76,0.808s9.904-0.312,14.76-0.84c1.736-0.184,3.432-0.536,5.152-0.792
			c3.072-0.456,6.128-0.92,9.128-1.568c2.096-0.456,4.136-1.048,6.2-1.6c2.544-0.688,5.072-1.384,7.56-2.208
			c2.192-0.728,4.344-1.544,6.488-2.384c2.272-0.888,4.52-1.824,6.736-2.832c2.144-0.976,4.256-1.976,6.344-3.064
			c2.216-1.152,4.368-2.392,6.512-3.656c1.904-1.128,3.808-2.224,5.656-3.44c2.64-1.736,5.168-3.624,7.68-5.544
			c1.2-0.92,2.456-1.752,3.632-2.72c3.8-3.104,7.424-6.408,10.872-9.896c0.144-0.144,0.272-0.304,0.408-0.456
			c3.344-3.416,6.472-7.032,9.44-10.784c0.176-0.224,0.392-0.416,0.568-0.648c0.064-0.088,0.072-0.2,0.136-0.296
			C365.208,300.256,376,271.392,376,240C376,165.008,314.992,104,240,104z M323.456,326.048c-0.744,0.728-1.544,1.392-2.312,2.096
			c-2.2,2.032-4.448,4-6.776,5.848c-1.312,1.04-2.664,2.016-4.008,3c-1.888,1.384-3.808,2.712-5.768,3.976
			c-1.64,1.056-3.304,2.064-5,3.04c-1.808,1.04-3.648,2.024-5.504,2.968c-1.832,0.928-3.68,1.848-5.56,2.688
			c-1.888,0.84-3.816,1.584-5.744,2.32c-1.896,0.728-3.792,1.472-5.736,2.104c-2.12,0.688-4.28,1.24-6.44,1.816
			c-1.824,0.48-3.632,1.016-5.488,1.416c-2.584,0.552-5.216,0.92-7.84,1.304c-1.512,0.216-2.992,0.528-4.52,0.688
			C248.552,359.744,244.296,360,240,360c-4.296,0-8.552-0.256-12.76-0.696c-1.528-0.16-3.008-0.472-4.52-0.688
			c-2.632-0.376-5.256-0.752-7.84-1.304c-1.856-0.4-3.664-0.928-5.488-1.416c-2.16-0.568-4.32-1.128-6.44-1.816
			c-1.944-0.632-3.832-1.376-5.736-2.104c-1.928-0.736-3.856-1.48-5.744-2.32c-1.888-0.84-3.728-1.752-5.56-2.688
			c-1.856-0.944-3.696-1.92-5.504-2.968c-1.696-0.976-3.36-1.984-5-3.04c-1.96-1.264-3.88-2.592-5.768-3.976
			c-1.352-0.984-2.704-1.96-4.008-3c-2.328-1.856-4.576-3.816-6.776-5.848c-0.768-0.704-1.56-1.376-2.312-2.096
			c-2.984-2.912-5.864-5.968-8.576-9.216c9.56-32.328,36.016-57.736,68.736-65.912c0.184,0.08,0.376,0.136,0.56,0.216
			c1.464,0.656,2.976,1.232,4.504,1.76c0.224,0.072,0.44,0.168,0.664,0.24C227.968,254.968,233.856,256,240,256
			c6.136,0,12.032-1.032,17.568-2.864c0.224-0.072,0.448-0.168,0.672-0.248c1.528-0.528,3.032-1.104,4.496-1.76
			c0.184-0.08,0.376-0.136,0.56-0.216c32.72,8.176,59.176,33.592,68.736,65.92C329.32,320.08,326.448,323.136,323.456,326.048z
			 M200,200c0-22.056,17.944-40,40-40c22.056,0,40,17.944,40,40c0,16.176-9.696,30.072-23.552,36.36
			c-0.496,0.224-0.992,0.472-1.496,0.672c-2.008,0.816-4.088,1.456-6.24,1.944c-0.576,0.128-1.152,0.216-1.728,0.312
			c-2.104,0.376-4.256,0.624-6.464,0.656c-0.344,0.008-0.696,0.008-1.04,0c-2.208-0.032-4.352-0.28-6.464-0.656
			c-0.576-0.104-1.16-0.184-1.728-0.312c-2.152-0.48-4.232-1.128-6.24-1.944c-0.504-0.208-1-0.448-1.496-0.672
			C209.696,230.072,200,216.176,200,200z M343.248,300.84c-11.848-28.136-34.984-50.552-63.488-61.464
			C289.792,229.256,296,215.344,296,200c0-30.88-25.12-56-56-56s-56,25.12-56,56c0,15.344,6.208,29.256,16.24,39.376
			c-28.504,10.912-51.64,33.32-63.488,61.464C126.176,282.976,120,262.216,120,240c0-66.168,53.832-120,120-120s120,53.832,120,120
			C360,262.216,353.824,282.976,343.248,300.84z"/>
	</g>
</g>
<g>
	<g>
		<rect x="232" y="272" width="16" height="16"/>
	</g>
</g>
<g>
	<g>
		<rect x="232" y="304" width="16" height="16"/>
	</g>
</g>
<g>
</g>
<g>
</g>
<g>
</g>
<g>
</g>
<g>
</g>
<g>
</g>
<g>
</g>
<g>
</g>
<g>
</g>
<g>
</g>
<g>
</g>
<g>
</g>
<g>
</g>
<g>
</g>
<g>
</g>
</svg>
